<?xml version="1.0" encoding="UTF-8" standalone="no"?>
<!-- Created with Inkscape (http://www.inkscape.org/) -->

<svg
   xmlns:dc="http://purl.org/dc/elements/1.1/"
   xmlns:cc="http://creativecommons.org/ns#"
   xmlns:rdf="http://www.w3.org/1999/02/22-rdf-syntax-ns#"
   xmlns:svg="http://www.w3.org/2000/svg"
   xmlns="http://www.w3.org/2000/svg"
   xmlns:xlink="http://www.w3.org/1999/xlink"
   xmlns:sodipodi="http://sodipodi.sourceforge.net/DTD/sodipodi-0.dtd"
   xmlns:inkscape="http://www.inkscape.org/namespaces/inkscape"
   width="210mm"
   height="297mm"
   viewBox="0 0 210 297"
   version="1.1"
   id="svg8"
   inkscape:version="0.92.1 r15371"
   sodipodi:docname="Figure1.svg">
  <defs
     id="defs2">
    <marker
       inkscape:stockid="Arrow1Mend"
       orient="auto"
       refY="0.0"
       refX="0.0"
       id="marker5158"
       style="overflow:visible;"
       inkscape:isstock="true">
      <path
         id="path5156"
         d="M 0.0,0.0 L 5.0,-5.0 L -12.5,0.0 L 5.0,5.0 L 0.0,0.0 z "
         style="fill-rule:evenodd;stroke:#000000;stroke-width:1pt;stroke-opacity:1;fill:#000000;fill-opacity:1"
         transform="scale(0.4) rotate(180) translate(10,0)" />
    </marker>
    <marker
       inkscape:isstock="true"
       style="overflow:visible;"
       id="marker5018"
       refX="0.0"
       refY="0.0"
       orient="auto"
       inkscape:stockid="Arrow1Mend"
       inkscape:collect="always">
      <path
         transform="scale(0.4) rotate(180) translate(10,0)"
         style="fill-rule:evenodd;stroke:#000000;stroke-width:1pt;stroke-opacity:1;fill:#000000;fill-opacity:1"
         d="M 0.0,0.0 L 5.0,-5.0 L -12.5,0.0 L 5.0,5.0 L 0.0,0.0 z "
         id="path5016" />
    </marker>
    <marker
       inkscape:stockid="Arrow1Mend"
       orient="auto"
       refY="0.0"
       refX="0.0"
       id="marker4946"
       style="overflow:visible;"
       inkscape:isstock="true"
       inkscape:collect="always">
      <path
         id="path4944"
         d="M 0.0,0.0 L 5.0,-5.0 L -12.5,0.0 L 5.0,5.0 L 0.0,0.0 z "
         style="fill-rule:evenodd;stroke:#000000;stroke-width:1pt;stroke-opacity:1;fill:#000000;fill-opacity:1"
         transform="scale(0.4) rotate(180) translate(10,0)" />
    </marker>
    <marker
       inkscape:isstock="true"
       style="overflow:visible;"
       id="marker5696"
       refX="0.0"
       refY="0.0"
       orient="auto"
       inkscape:stockid="Arrow1Mend">
      <path
         transform="scale(0.4) rotate(180) translate(10,0)"
         style="fill-rule:evenodd;stroke:#000000;stroke-width:1pt;stroke-opacity:1;fill:#000000;fill-opacity:1"
         d="M 0.0,0.0 L 5.0,-5.0 L -12.5,0.0 L 5.0,5.0 L 0.0,0.0 z "
         id="path5694" />
    </marker>
    <marker
       inkscape:stockid="Arrow1Mstart"
       orient="auto"
       refY="0.0"
       refX="0.0"
       id="Arrow1Mstart"
       style="overflow:visible"
       inkscape:isstock="true">
      <path
         id="path4544"
         d="M 0.0,0.0 L 5.0,-5.0 L -12.5,0.0 L 5.0,5.0 L 0.0,0.0 z "
         style="fill-rule:evenodd;stroke:#000000;stroke-width:1pt;stroke-opacity:1;fill:#000000;fill-opacity:1"
         transform="scale(0.4) translate(10,0)" />
    </marker>
    <marker
       inkscape:isstock="true"
       style="overflow:visible"
       id="marker4934-4"
       refX="0"
       refY="0"
       orient="auto"
       inkscape:stockid="Arrow1Mend">
      <path
         inkscape:connector-curvature="0"
         transform="matrix(-0.4,0,0,-0.4,-4,0)"
         style="fill:#000000;fill-opacity:1;fill-rule:evenodd;stroke:#000000;stroke-width:1.00000003pt;stroke-opacity:1"
         d="M 0,0 5,-5 -12.5,0 5,5 Z"
         id="path4932-1" />
    </marker>
    <marker
       inkscape:isstock="true"
       style="overflow:visible"
       id="marker5696-3"
       refX="0"
       refY="0"
       orient="auto"
       inkscape:stockid="Arrow1Mend">
      <path
         inkscape:connector-curvature="0"
         transform="matrix(-0.4,0,0,-0.4,-4,0)"
         style="fill:#000000;fill-opacity:1;fill-rule:evenodd;stroke:#000000;stroke-width:1.00000003pt;stroke-opacity:1"
         d="M 0,0 5,-5 -12.5,0 5,5 Z"
         id="path5694-4" />
    </marker>
    <linearGradient
       id="linearGradient6389"
       x1="-105.33"
       gradientUnits="userSpaceOnUse"
       y1="-49.339001"
       gradientTransform="matrix(17.393,0,0,17.393,2312.8,1649.4)"
       x2="-105.17"
       y2="-66.497002">
      <stop
         id="stop5882"
         stop-color="#008066"
         offset="0" />
      <stop
         id="stop5884"
         stop-color="#2ca089"
         offset="1" />
    </linearGradient>
    <radialGradient
       id="radialGradient6383"
       gradientUnits="userSpaceOnUse"
       cy="469.45999"
       cx="975.19"
       gradientTransform="matrix(5.2333,0.3047,-0.3405,4.5967,-4791,-1843.6)"
       r="8.9146996">
      <stop
         id="stop47575-1"
         stop-color="#fff"
         offset="0" />
      <stop
         id="stop47577-9"
         stop-color="#fbdea9"
         offset="1" />
    </radialGradient>
    <linearGradient
       id="linearGradient6380"
       x1="1123.6"
       xlink:href="#linearGradient21004-8"
       gradientUnits="userSpaceOnUse"
       y1="708.09003"
       gradientTransform="matrix(3.9154,-0.060968,0.061948,3.8534,-4363.1,-2108.8)"
       x2="1135.9"
       y2="722.40002" />
    <linearGradient
       id="linearGradient21004-8">
      <stop
         id="stop21006-0"
         stop-color="#996200"
         offset="0" />
      <stop
         id="stop21008-4"
         stop-color="#593900"
         offset="1" />
    </linearGradient>
    <linearGradient
       id="linearGradient6377"
       x1="1121.2"
       xlink:href="#linearGradient8026-0"
       gradientUnits="userSpaceOnUse"
       y1="711.39001"
       gradientTransform="matrix(3.9154,-0.060968,0.061948,3.8534,-4361.2,-2107.6)"
       x2="1132"
       y2="716.92999" />
    <linearGradient
       id="linearGradient8026-0">
      <stop
         id="stop8028-2"
         stop-color="#fff"
         offset="0" />
      <stop
         id="stop8030-8"
         stop-color="#fff"
         stop-opacity="0"
         offset="1" />
    </linearGradient>
    <linearGradient
       id="linearGradient6294"
       x1="1152.1"
       xlink:href="#linearGradient21004-8"
       gradientUnits="userSpaceOnUse"
       y1="721.72998"
       gradientTransform="translate(310.34,-122.24)"
       x2="1126.7"
       y2="688.85999" />
    <filter
       style="color-interpolation-filters:sRGB"
       id="filter45683"
       width="1.2226"
       y="-0.12601"
       x="-0.11132"
       height="1.252">
      <feGaussianBlur
         id="feGaussianBlur45685"
         stdDeviation="1.0099766" />
    </filter>
    <linearGradient
       id="linearGradient6373"
       x1="1152.1"
       xlink:href="#linearGradient21004-8"
       gradientUnits="userSpaceOnUse"
       y1="721.72998"
       gradientTransform="matrix(3.9154,-0.060968,0.061948,3.8534,-4369.3,-2104.5)"
       x2="1126.7"
       y2="688.85999" />
    <linearGradient
       id="linearGradient6370"
       x1="1128"
       xlink:href="#linearGradient8026-0"
       gradientUnits="userSpaceOnUse"
       y1="698.29999"
       gradientTransform="matrix(3.4194,-0.053244,0.061948,3.8534,-3804.4,-2112)"
       x2="1142.8"
       y2="719.45001" />
    <linearGradient
       id="linearGradient6367"
       x1="1470.8"
       gradientUnits="userSpaceOnUse"
       y1="597.62"
       gradientTransform="matrix(4.4676,-0.069566,0.066525,4.1381,-6515.9,-1818)"
       x2="1484.6"
       y2="621.39001">
      <stop
         id="stop44869-2"
         stop-color="#fff"
         offset="0" />
      <stop
         id="stop44871-0"
         stop-color="#f8c367"
         offset="1" />
    </linearGradient>
    <linearGradient
       id="linearGradient6364"
       x1="1470.8"
       xlink:href="#linearGradient8026-0"
       gradientUnits="userSpaceOnUse"
       y1="597.62"
       gradientTransform="matrix(4.4676,-0.069566,0.050835,3.1621,-6506,-1224)"
       x2="1484.6"
       y2="621.39001" />
    <linearGradient
       id="linearGradient6359"
       x1="1056"
       xlink:href="#linearGradient8026-0"
       gradientUnits="userSpaceOnUse"
       y1="490.22"
       gradientTransform="matrix(-3.8087,0.059307,0.061948,3.8534,4124.4,-1326.1)"
       x2="1065.7"
       y2="510.60999" />
    <linearGradient
       id="linearGradient6356"
       x1="1056"
       xlink:href="#linearGradient8026-0"
       gradientUnits="userSpaceOnUse"
       y1="490.22"
       gradientTransform="matrix(3.9154,-0.060968,0.061948,3.8534,-4019.3,-1197.8)"
       x2="1065.7"
       y2="510.60999" />
    <linearGradient
       id="linearGradient6349"
       x1="-125.59"
       gradientUnits="userSpaceOnUse"
       y1="-33.827999"
       gradientTransform="matrix(17.393,0,0,17.393,2312.8,1649.4)"
       x2="-125.14"
       y2="-69.775002">
      <stop
         id="stop5866"
         stop-color="#a05a2c"
         offset="0" />
      <stop
         id="stop5868"
         stop-color="#a05a2c"
         stop-opacity="0"
         offset="1" />
    </linearGradient>
    <marker
       inkscape:stockid="Arrow1Mend"
       orient="auto"
       refY="0"
       refX="0"
       id="marker5158-0"
       style="overflow:visible"
       inkscape:isstock="true">
      <path
         inkscape:connector-curvature="0"
         id="path5156-9"
         d="M 0,0 5,-5 -12.5,0 5,5 Z"
         style="fill:#000000;fill-opacity:1;fill-rule:evenodd;stroke:#000000;stroke-width:1.00000003pt;stroke-opacity:1"
         transform="matrix(-0.4,0,0,-0.4,-4,0)" />
    </marker>
  </defs>
  <sodipodi:namedview
     id="base"
     pagecolor="#ffffff"
     bordercolor="#666666"
     borderopacity="1.0"
     inkscape:pageopacity="0.0"
     inkscape:pageshadow="2"
     inkscape:zoom="0.75451467"
     inkscape:cx="314.18677"
     inkscape:cy="718.23294"
     inkscape:document-units="mm"
     inkscape:current-layer="layer1"
     showgrid="false"
     inkscape:window-width="1920"
     inkscape:window-height="1137"
     inkscape:window-x="1672"
     inkscape:window-y="-8"
     inkscape:window-maximized="1"
     inkscape:snap-nodes="false" />
  <metadata
     id="metadata5">
    <rdf:RDF>
      <cc:Work
         rdf:about="">
        <dc:format>image/svg+xml</dc:format>
        <dc:type
           rdf:resource="http://purl.org/dc/dcmitype/StillImage" />
        <dc:title />
      </cc:Work>
    </rdf:RDF>
  </metadata>
  <g
     inkscape:label="Layer 1"
     inkscape:groupmode="layer"
     id="layer1">
    <rect
       style="fill:#ffffff;stroke:#000000;stroke-width:1;stroke-miterlimit:4;stroke-dasharray:none;stroke-dashoffset:0"
       id="rect4497"
       width="479.06247"
       height="246.21964"
       x="-114.34315"
       y="-11.612619"
       inkscape:export-filename="C:\Users\msed\Dropbox\DTU\Phd\Courses\02460 Advanced Machine Learning\Project\Methods\02460\Martin\Figure1.png"
       inkscape:export-xdpi="138"
       inkscape:export-ydpi="138" />
    <rect
       style="fill:#ffb380;stroke:none;stroke-width:6.52144051;stroke-miterlimit:4;stroke-dasharray:none;stroke-dashoffset:0"
       id="rect4491-2"
       width="346.48462"
       height="245.16763"
       x="-113.99248"
       y="-11.261952"
       ry="0"
       inkscape:export-filename="C:\Users\msed\Dropbox\DTU\Phd\Courses\02460 Advanced Machine Learning\Project\Methods\02460\Martin\Figure1.png"
       inkscape:export-xdpi="138"
       inkscape:export-ydpi="138" />
    <path
       style="fill:none;stroke:#000000;stroke-width:5.68985748;stroke-linecap:butt;stroke-linejoin:miter;stroke-miterlimit:4;stroke-dasharray:45.51885913, 5.68985739;stroke-dashoffset:0;stroke-opacity:1"
       d="M 232.49216,14.011799 V 231.07462"
       id="path4485"
       inkscape:connector-curvature="0"
       inkscape:export-filename="C:\Users\msed\Dropbox\DTU\Phd\Courses\02460 Advanced Machine Learning\Project\Methods\02460\Martin\Figure1.png"
       inkscape:export-xdpi="138"
       inkscape:export-ydpi="138" />
    <text
       xml:space="preserve"
       style="font-style:normal;font-weight:normal;font-size:10.58333302px;line-height:1.25;font-family:sans-serif;letter-spacing:0px;word-spacing:0px;fill:#000000;fill-opacity:1;stroke:none;stroke-width:0.26458332"
       x="204.08815"
       y="9.8037949"
       id="text4489"
       inkscape:export-filename="C:\Users\msed\Dropbox\DTU\Phd\Courses\02460 Advanced Machine Learning\Project\Methods\02460\Martin\Figure1.png"
       inkscape:export-xdpi="138"
       inkscape:export-ydpi="138"><tspan
         sodipodi:role="line"
         id="tspan4487"
         x="204.08815"
         y="9.8037949"
         style="stroke-width:0.26458332">Trust Boundary</tspan></text>
    <rect
       style="fill:#ffaaaa;stroke:#000000;stroke-width:1;stroke-miterlimit:4;stroke-dasharray:none;stroke-dashoffset:0"
       id="rect4491"
       width="77.10276"
       height="25.90539"
       x="61.388683"
       y="247.9286"
       ry="0" />
    <text
       xml:space="preserve"
       style="font-style:normal;font-weight:normal;font-size:10.58333302px;line-height:1.25;font-family:sans-serif;letter-spacing:0px;word-spacing:0px;fill:#000000;fill-opacity:1;stroke:none;stroke-width:0.26458332"
       x="77.84803"
       y="264.03732"
       id="text4495"><tspan
         sodipodi:role="line"
         id="tspan4493"
         x="77.84803"
         y="264.03732"
         style="stroke-width:0.26458332">Student</tspan></text>
    <rect
       style="fill:#aaeeff;stroke:#000000;stroke-width:1.24438143;stroke-miterlimit:4;stroke-dasharray:none;stroke-dashoffset:0"
       id="rect4499"
       width="100.29452"
       height="51.551815"
       x="-81.531937"
       y="62.226597"
       inkscape:export-filename="C:\Users\msed\Dropbox\DTU\Phd\Courses\02460 Advanced Machine Learning\Project\Methods\02460\Martin\Figure1.png"
       inkscape:export-xdpi="138"
       inkscape:export-ydpi="138" />
    <text
       xml:space="preserve"
       style="font-style:normal;font-weight:normal;font-size:10.58333302px;line-height:1.25;font-family:sans-serif;letter-spacing:0px;word-spacing:0px;fill:#000000;fill-opacity:1;stroke:none;stroke-width:0.26458332"
       x="-79.250725"
       y="73.625175"
       id="text4503"
       inkscape:export-filename="C:\Users\msed\Dropbox\DTU\Phd\Courses\02460 Advanced Machine Learning\Project\Methods\02460\Martin\Figure1.png"
       inkscape:export-xdpi="138"
       inkscape:export-ydpi="138"><tspan
         sodipodi:role="line"
         id="tspan4501"
         x="-79.250725"
         y="73.625175"
         style="stroke-width:0.26458332">Private dataset</tspan><tspan
         sodipodi:role="line"
         x="-79.250725"
         y="86.85434"
         style="stroke-width:0.26458332"
         id="tspan4505">- Students' </tspan><tspan
         sodipodi:role="line"
         x="-79.250725"
         y="100.08351"
         style="stroke-width:0.26458332"
         id="tspan4507">Results of tests</tspan></text>
    <rect
       style="fill:#ffeeaa;stroke:#000000;stroke-width:1;stroke-miterlimit:4;stroke-dasharray:none;stroke-dashoffset:0"
       id="rect4509"
       width="86.965393"
       height="38.92403"
       x="134.30542"
       y="102.37986"
       inkscape:export-filename="C:\Users\msed\Dropbox\DTU\Phd\Courses\02460 Advanced Machine Learning\Project\Methods\02460\Martin\Figure1.png"
       inkscape:export-xdpi="138"
       inkscape:export-ydpi="138" />
    <ellipse
       style="fill:#afe9af;stroke:#000000;stroke-width:1;stroke-miterlimit:4;stroke-dasharray:none;stroke-dashoffset:0"
       id="path4853"
       cx="177.09311"
       cy="63.283688"
       rx="41.502075"
       ry="18.358057"
       inkscape:export-filename="C:\Users\msed\Dropbox\DTU\Phd\Courses\02460 Advanced Machine Learning\Project\Methods\02460\Martin\Figure1.png"
       inkscape:export-xdpi="138"
       inkscape:export-ydpi="138" />
    <text
       xml:space="preserve"
       style="font-style:normal;font-weight:normal;font-size:10.58333302px;line-height:1.25;font-family:sans-serif;letter-spacing:0px;word-spacing:0px;fill:#000000;fill-opacity:1;stroke:none;stroke-width:0.26458332"
       x="139.57176"
       y="65.738335"
       id="text4530"
       inkscape:export-filename="C:\Users\msed\Dropbox\DTU\Phd\Courses\02460 Advanced Machine Learning\Project\Methods\02460\Martin\Figure1.png"
       inkscape:export-xdpi="138"
       inkscape:export-ydpi="138"><tspan
         sodipodi:role="line"
         id="tspan4528"
         x="139.57176"
         y="65.738335"
         style="stroke-width:0.26458332">DP Mechanism</tspan></text>
    <text
       xml:space="preserve"
       style="font-style:normal;font-weight:normal;font-size:10.58333302px;line-height:1.25;font-family:sans-serif;letter-spacing:0px;word-spacing:0px;fill:#000000;fill-opacity:1;stroke:none;stroke-width:0.26458332"
       x="145.87744"
       y="124.12121"
       id="text4822"
       inkscape:export-filename="C:\Users\msed\Dropbox\DTU\Phd\Courses\02460 Advanced Machine Learning\Project\Methods\02460\Martin\Figure1.png"
       inkscape:export-xdpi="138"
       inkscape:export-ydpi="138"><tspan
         sodipodi:role="line"
         id="tspan4820"
         x="145.87744"
         y="124.12121"
         style="stroke-width:0.26458332">Rasch model</tspan></text>
    <rect
       style="fill:#ffaaaa;stroke:#000000;stroke-width:1;stroke-miterlimit:4;stroke-dasharray:none;stroke-dashoffset:0"
       id="rect4491-4"
       width="77.10276"
       height="25.90539"
       x="150.45808"
       y="247.22728"
       ry="0" />
    <text
       xml:space="preserve"
       style="font-style:normal;font-weight:normal;font-size:10.58333302px;line-height:1.25;font-family:sans-serif;letter-spacing:0px;word-spacing:0px;fill:#000000;fill-opacity:1;stroke:none;stroke-width:0.26458332"
       x="166.91743"
       y="263.336"
       id="text4495-6"><tspan
         sodipodi:role="line"
         id="tspan4493-4"
         x="166.91743"
         y="263.336"
         style="stroke-width:0.26458332">Teacher</tspan></text>
    <ellipse
       style="fill:#afe9af;stroke:#000000;stroke-width:1;stroke-miterlimit:4;stroke-dasharray:none;stroke-dashoffset:0"
       id="path4853-9"
       cx="44.359356"
       cy="161.64258"
       rx="46.180016"
       ry="20.405991"
       inkscape:export-filename="C:\Users\msed\Dropbox\DTU\Phd\Courses\02460 Advanced Machine Learning\Project\Methods\02460\Martin\Figure1.png"
       inkscape:export-xdpi="138"
       inkscape:export-ydpi="138" />
    <text
       xml:space="preserve"
       style="font-style:normal;font-weight:normal;font-size:10.58333302px;line-height:1.25;font-family:sans-serif;letter-spacing:0px;word-spacing:0px;fill:#000000;fill-opacity:1;stroke:none;stroke-width:0.26458332"
       x="15.078689"
       y="158.13586"
       id="text4530-7"
       inkscape:export-filename="C:\Users\msed\Dropbox\DTU\Phd\Courses\02460 Advanced Machine Learning\Project\Methods\02460\Martin\Figure1.png"
       inkscape:export-xdpi="138"
       inkscape:export-ydpi="138"><tspan
         sodipodi:role="line"
         x="15.078689"
         y="158.13586"
         style="stroke-width:0.26458332"
         id="tspan4886">Parameter</tspan><tspan
         sodipodi:role="line"
         x="15.078689"
         y="171.36504"
         style="stroke-width:0.26458332"
         id="tspan5532">Estimation</tspan></text>
    <ellipse
       style="fill:#afe9af;stroke:#000000;stroke-width:1;stroke-miterlimit:4;stroke-dasharray:none;stroke-dashoffset:0"
       id="path4853-2"
       cx="287.89755"
       cy="272.45331"
       rx="41.502079"
       ry="18.358057" />
    <text
       xml:space="preserve"
       style="font-style:normal;font-weight:normal;font-size:10.58333302px;line-height:1.25;font-family:sans-serif;letter-spacing:0px;word-spacing:0px;fill:#000000;fill-opacity:1;stroke:none;stroke-width:0.26458332"
       x="270.71487"
       y="274.90796"
       id="text4530-0"><tspan
         sodipodi:role="line"
         id="tspan4528-99"
         x="270.71487"
         y="274.90796"
         style="stroke-width:0.26458332">Query</tspan></text>
    <text
       xml:space="preserve"
       style="font-style:normal;font-weight:normal;font-size:10.58333302px;line-height:1.25;font-family:sans-serif;letter-spacing:0px;word-spacing:0px;fill:#000000;fill-opacity:1;stroke:none;stroke-width:0.26458332"
       x="-56.808044"
       y="131.13455"
       id="text4922"
       inkscape:export-filename="C:\Users\msed\Dropbox\DTU\Phd\Courses\02460 Advanced Machine Learning\Project\Methods\02460\Martin\Figure1.png"
       inkscape:export-xdpi="138"
       inkscape:export-ydpi="138"><tspan
         sodipodi:role="line"
         id="tspan4920"
         x="-56.808044"
         y="131.13455"
         style="stroke-width:0.26458332">General </tspan><tspan
         sodipodi:role="line"
         x="-56.808044"
         y="144.36372"
         style="stroke-width:0.26458332"
         id="tspan5511">Results</tspan></text>
    <path
       sodipodi:type="star"
       style="fill:#aa87de;stroke:#000000;stroke-width:1;stroke-miterlimit:4;stroke-dasharray:none;stroke-dashoffset:0"
       id="path5548"
       sodipodi:sides="6"
       sodipodi:cx="303.84867"
       sodipodi:cy="152.63546"
       sodipodi:r1="40.656403"
       sodipodi:r2="35.209473"
       sodipodi:arg1="0"
       sodipodi:arg2="0.52359878"
       inkscape:flatsided="true"
       inkscape:rounded="0"
       inkscape:randomized="0"
       d="m 344.50507,152.63547 -20.32821,35.20947 h -40.6564 l -20.3282,-35.20947 20.3282,-35.20948 40.6564,0 z"
       inkscape:transform-center-x="1.0749728e-005"
       inkscape:transform-center-y="-6.8871885e-006"
       inkscape:export-filename="C:\Users\msed\Dropbox\DTU\Phd\Courses\02460 Advanced Machine Learning\Project\Methods\02460\Martin\Figure1.png"
       inkscape:export-xdpi="138"
       inkscape:export-ydpi="138" />
    <text
       xml:space="preserve"
       style="font-style:normal;font-weight:normal;font-size:10.58333302px;line-height:1.25;font-family:sans-serif;text-align:center;letter-spacing:0px;word-spacing:0px;text-anchor:middle;fill:#000000;fill-opacity:1;stroke:none;stroke-width:0.26458332"
       x="303.46356"
       y="148.07996"
       id="text5552"
       inkscape:export-filename="C:\Users\msed\Dropbox\DTU\Phd\Courses\02460 Advanced Machine Learning\Project\Methods\02460\Martin\Figure1.png"
       inkscape:export-xdpi="138"
       inkscape:export-ydpi="138"><tspan
         sodipodi:role="line"
         x="303.46356"
         y="148.07996"
         style="text-align:center;text-anchor:middle;stroke-width:0.26458332"
         id="tspan5558">Ability of</tspan><tspan
         sodipodi:role="line"
         x="303.46356"
         y="161.30913"
         style="text-align:center;text-anchor:middle;stroke-width:0.26458332"
         id="tspan5166">Student</tspan></text>
    <path
       sodipodi:type="star"
       style="fill:#aa87de;stroke:#000000;stroke-width:1;stroke-miterlimit:4;stroke-dasharray:none;stroke-dashoffset:0"
       id="path5548-3"
       sodipodi:sides="6"
       sodipodi:cx="303.84867"
       sodipodi:cy="82.216499"
       sodipodi:r1="40.656406"
       sodipodi:r2="35.209473"
       sodipodi:arg1="0"
       sodipodi:arg2="0.52359878"
       inkscape:flatsided="true"
       inkscape:rounded="0"
       inkscape:randomized="0"
       d="m 344.50507,82.216499 -20.3282,35.209481 h -40.65641 l -20.3282,-35.209481 20.3282,-35.20948 40.65641,0 z"
       inkscape:transform-center-x="1.0749728e-005"
       inkscape:transform-center-y="-6.8871885e-006"
       inkscape:export-filename="C:\Users\msed\Dropbox\DTU\Phd\Courses\02460 Advanced Machine Learning\Project\Methods\02460\Martin\Figure1.png"
       inkscape:export-xdpi="138"
       inkscape:export-ydpi="138" />
    <text
       xml:space="preserve"
       style="font-style:normal;font-weight:normal;font-size:10.58333302px;line-height:1.25;font-family:sans-serif;text-align:center;letter-spacing:0px;word-spacing:0px;text-anchor:middle;fill:#000000;fill-opacity:1;stroke:none;stroke-width:0.26458332"
       x="302.96774"
       y="79.88134"
       id="text5552-6"
       inkscape:export-filename="C:\Users\msed\Dropbox\DTU\Phd\Courses\02460 Advanced Machine Learning\Project\Methods\02460\Martin\Figure1.png"
       inkscape:export-xdpi="138"
       inkscape:export-ydpi="138"><tspan
         sodipodi:role="line"
         x="302.96774"
         y="79.88134"
         style="text-align:center;text-anchor:middle;stroke-width:0.26458332"
         id="tspan5558-4">Difficulty</tspan><tspan
         sodipodi:role="line"
         x="302.96774"
         y="93.110512"
         style="text-align:center;text-anchor:middle;stroke-width:0.26458332"
         id="tspan5177">of Task</tspan></text>
    <path
       style="fill:none;stroke:#000000;stroke-width:1;stroke-linecap:butt;stroke-linejoin:miter;stroke-miterlimit:4;stroke-dasharray:none;stroke-opacity:1;marker-end:url(#marker4934-4)"
       d="M 177.26213,81.865852 V 100.45119"
       id="path4848"
       inkscape:connector-curvature="0"
       inkscape:export-filename="C:\Users\msed\Dropbox\DTU\Phd\Courses\02460 Advanced Machine Learning\Project\Methods\02460\Martin\Figure1.png"
       inkscape:export-xdpi="138"
       inkscape:export-ydpi="138" />
    <path
       style="fill:none;stroke:#000000;stroke-width:1;stroke-linecap:butt;stroke-linejoin:miter;stroke-opacity:1;marker-end:url(#marker4946);stroke-miterlimit:4;stroke-dasharray:none"
       d="M 221.27081,102.37986 263.19225,82.2165"
       id="path4936"
       inkscape:connector-curvature="0"
       inkscape:export-filename="C:\Users\msed\Dropbox\DTU\Phd\Courses\02460 Advanced Machine Learning\Project\Methods\02460\Martin\Figure1.png"
       inkscape:export-xdpi="138"
       inkscape:export-ydpi="138" />
    <path
       style="fill:none;stroke:#000000;stroke-width:1;stroke-linecap:butt;stroke-linejoin:miter;stroke-opacity:1;marker-end:url(#marker5018);stroke-miterlimit:4;stroke-dasharray:none"
       d="m 221.27081,141.30389 41.92145,11.33158"
       id="path5008"
       inkscape:connector-curvature="0"
       inkscape:export-filename="C:\Users\msed\Dropbox\DTU\Phd\Courses\02460 Advanced Machine Learning\Project\Methods\02460\Martin\Figure1.png"
       inkscape:export-xdpi="138"
       inkscape:export-ydpi="138" />
    <path
       style="fill:none;stroke:#000000;stroke-width:1;stroke-linecap:butt;stroke-linejoin:miter;stroke-miterlimit:4;stroke-dasharray:none;stroke-opacity:1;marker-end:url(#marker5158)"
       d="M 89.384267,155.3765 132.35653,142.03738"
       id="path5148"
       inkscape:connector-curvature="0"
       inkscape:export-filename="C:\Users\msed\Dropbox\DTU\Phd\Courses\02460 Advanced Machine Learning\Project\Methods\02460\Martin\Figure1.png"
       inkscape:export-xdpi="138"
       inkscape:export-ydpi="138" />
    <g
       id="layer1-2"
       transform="matrix(0.08571844,0,0,0.08571844,-87.746448,-41.59182)"
       inkscape:export-filename="C:\Users\msed\Dropbox\DTU\Phd\Courses\02460 Advanced Machine Learning\Project\Methods\02460\Martin\Figure1.png"
       inkscape:export-xdpi="138"
       inkscape:export-ydpi="138">
      <g
         id="g6395">
        <path
           id="path2831"
           d="M 276.58,482.55 V 828.74 H 689.07 V 482.55 Z m 14.732,14.732 h 383.02 v 316.73 h -383.02 z"
           inkscape:connector-curvature="0"
           style="fill:#a05a2c" />
        <path
           id="rect3777"
           d="M 291.31,497.28 H 674.33 V 814.01 H 291.31 Z"
           style="fill:url(#linearGradient6389)"
           inkscape:connector-curvature="0" />
        <path
           id="rect4099"
           d="m 276.58,828.74 h 412.49 v 16.363 H 276.58 Z"
           inkscape:connector-curvature="0"
           style="fill:#808080" />
        <path
           id="path2733"
           d="m 8.3397,827.31 h 43.605 l 26.409,-95.439 h 10.716 l -1.1045,98.489 99.391,-3.0494 2.5375,-95.439 h 11.259 l 14.739,46.783 c 6.9774,19.76 24.567,24.328 38.077,7.4855 l 53.45,-64.26 c 16.679,-21.583 -13.51,-44.327 -31.023,-25.401 l -31.524,37.521 c 0,0.62286 -6.0046,-20.587 -6.0046,-20.587 -7.3388,-25.235 -31.357,-50.039 -67.384,-50.039 h -68.051 c -32.024,0 -57.237,27.902 -62.45,45.417 z"
           inkscape:connector-curvature="0"
           style="fill:#2c89a0" />
        <path
           id="path4517"
           d="m 112.03,641.85 54.912,-2.0948 -15.156,82.6 -26.789,-0.20263 -12.967,-80.302 z"
           inkscape:connector-curvature="0"
           style="fill:#fbdea9;fill-rule:evenodd" />
        <path
           id="path4519"
           d="m 104.45,641.45 30.529,19.351 7.832,-0.12175 28.827,-16.971 0.33917,-48.47 c 0,0 -3.2376,-32.695 -38.574,-32.444 -27.507,0.18785 -30.657,42.334 -30.657,42.334 l 1.7028,36.322 z"
           style="fill:url(#radialGradient6383);fill-rule:evenodd;stroke:#996508;stroke-width:3.88479996px;stroke-linecap:round;stroke-linejoin:round"
           inkscape:connector-curvature="0" />
        <path
           id="path4521"
           d="m 102.61,615.57 c 0,0 -15.499,-24.267 -11.826,-39.469 3.6728,-15.202 11.643,-24.138 26.517,-21.341 11.35,2.1346 19.269,15.121 19.269,15.121 l -19.004,1.3974 -14.956,44.292 z"
           style="fill:url(#linearGradient6380);fill-rule:evenodd"
           inkscape:connector-curvature="0" />
        <path
           id="path4523"
           d="m 104.49,616.8 c 0,0 -15.499,-24.267 -11.827,-39.469 3.6728,-15.203 11.643,-24.139 26.518,-21.341 11.35,2.1346 19.269,15.121 19.269,15.121 l -19.003,1.3974 -14.956,44.292 z"
           style="fill:url(#linearGradient6377);fill-rule:evenodd"
           inkscape:connector-curvature="0" />
        <path
           id="path4525"
           d="m 1440.6,587.36 c 0,0 0.4183,-0.0954 0.8289,0.5129 5.0149,7.4281 16.042,7.1915 18.437,12.378 0.4132,0.89471 0.971,0.66079 0.971,0.66079 0,0 2.7863,-5.1439 0.8573,-10.002 -1.929,-4.8581 -3.7718,-6.569 -8.0017,-8.2874 -4.5724,-1.8575 -5.7869,-0.5001 -9.1447,0.57155 -3.3578,1.07165 -3.948,4.1665 -3.948,4.1665 z"
           transform="matrix(3.4589,-0.053861,0.054796,3.4085,-4911.2,-1358.5)"
           style="fill:url(#linearGradient6294);fill-rule:evenodd;filter:url(#filter45683)"
           inkscape:connector-curvature="0" />
        <path
           id="path4527"
           d="m 100.16,561.04 c 0,0 1.6315,-0.39275 3.2773,1.9259 20.095,28.318 63.256,26.734 72.955,46.572 1.6733,3.4225 3.8428,2.4871 3.8428,2.4871 0,0 10.591,-19.992 2.7374,-38.594 -7.8537,-18.603 -15.175,-25.083 -31.843,-31.447 -18.018,-6.8791 -22.689,-1.5743 -35.77,2.76 -13.081,4.3342 -15.199,16.296 -15.199,16.296 z"
           style="fill:url(#linearGradient6373);fill-rule:evenodd"
           inkscape:connector-curvature="0" />
        <path
           id="path4529"
           d="m 104.42,562.22 c 0,0 1.4245,-0.38997 2.8661,1.9323 40.352,28.915 109.21,10.051 41.609,-20.887 -20.333,-6.4323 -14.394,-1.7034 -31.234,2.6893 -11.818,3.0828 -13.241,16.266 -13.241,16.266 z"
           style="fill:url(#linearGradient6370);fill-rule:evenodd"
           inkscape:connector-curvature="0" />
        <path
           id="path4531"
           d="m 117.58,584.71 c 15.039,9.3971 30.026,15.512 47.086,18.311 l 0.56007,34.795 c -18.485,11.451 -33.617,11.03 -51.71,2.7753 l -4.0821,-33.427 8.1469,-22.454 z"
           style="opacity:0.54924999;fill:url(#linearGradient6367);fill-rule:evenodd"
           inkscape:connector-curvature="0" />
        <path
           id="path4533"
           d="m 117.94,587.84 c 15.003,7.1262 29.965,11.744 47.013,13.82 l 0.42788,26.589 c -18.528,8.8192 -33.656,8.553 -51.717,2.3108 l -3.956,-25.531 8.2323,-17.19 z"
           style="fill:url(#linearGradient6364);fill-rule:evenodd"
           inkscape:connector-curvature="0" />
        <path
           id="path4535"
           d="m 163.71,659.13 -49.765,70.016 105.67,0.23481 c 0,0 -2.497,-42.29 -13.164,-55.718 -14.86,-12.086 -42.738,-14.532 -42.738,-14.532 z"
           inkscape:connector-curvature="0"
           style="fill:#2c89a0;fill-rule:evenodd" />
        <path
           id="path4537"
           d="m 117.53,662.27 37.135,65.905 -90.823,1.5851 c 0,0 2.7313,-43.967 12.961,-57.72 14.464,-12.543 40.726,-9.7696 40.726,-9.7696 z"
           inkscape:connector-curvature="0"
           style="fill:#2c89a0;fill-rule:evenodd" />
        <path
           id="path4539"
           d="m 116.22,661.38 20.953,47.559 -73.968,-1.1045 c 0,0 1.4593,-19.226 11.405,-32.974 14.064,-12.537 41.61,-13.48 41.61,-13.48 z"
           style="fill:url(#linearGradient6359);fill-rule:evenodd"
           inkscape:connector-curvature="0" />
        <path
           id="path4541"
           d="m 164.4,659.78 -27.981,46.55 83.512,0.57973 c 0,0 -2.1255,-19.17 -12.793,-32.598 -14.86,-12.086 -42.738,-14.532 -42.738,-14.532 z"
           style="fill:url(#linearGradient6356);fill-rule:evenodd"
           inkscape:connector-curvature="0" />
        <path
           id="path2743"
           d="M 268.49,846.3 V 823.585 H 0.93 V 846.3 Z"
           inkscape:connector-curvature="0"
           style="fill:#a05a2c" />
        <path
           id="path2743-1"
           d="M 239.16,1052.2 V 850.67 H 0.94 v 201.53 z"
           inkscape:connector-curvature="0"
           style="fill:#a05a2c" />
        <path
           id="path2735-0-9"
           d="m 429.01,569.39 -4.8084,-4.5791 -123.59,129.78 4.8084,4.5791 z"
           inkscape:connector-curvature="0"
           style="fill:#dddddd" />
        <path
           id="path2735-0-4"
           d="M 225.76,1038.1 V 863.5 H 0.93 v 174.6 z"
           inkscape:connector-curvature="0"
           style="fill:#ffffff" />
        <path
           id="path2743-1-8"
           d="M 222.31,1035.9 V 865.28 H 0.93 v 170.62 z"
           style="fill:url(#linearGradient6349)"
           inkscape:connector-curvature="0" />
        <path
           id="path2838"
           d="m 422.11,666.93 c -4.1078,8.3442 -9.1782,15.445 -15.211,21.301 -6.0011,5.8254 -11.232,8.7381 -15.693,8.7381 -3.4017,0 -6.1295,-1.4801 -8.1833,-4.4402 -2.0218,-2.9911 -3.0326,-6.9583 -3.0326,-11.902 0,-9.8559 3.0326,-18.531 9.0979,-26.025 6.0974,-7.4938 13.141,-11.241 21.132,-11.241 4.8458,0 10.093,1.4801 15.741,4.4402 0.83432,-2.9285 4.236,-4.3928 10.205,-4.3928 0.38506,0 1.0108,0 1.8774,0.0719 -1.8293,2.7395 -3.2253,6.486 -4.1879,11.241 l -0.81833,4.014 c -0.93071,4.4718 -1.396,9.6985 -1.396,15.681 -6e-5,6.8958 1.6366,10.343 4.91,10.343 3.4658,0 8.1993,-2.8336 14.2,-8.5016 6.0331,-5.6989 11.954,-12.941 17.763,-21.726 l 3.7547,2.5504 c -5.937,10.391 -12.724,19.066 -20.362,26.024 -7.6378,6.9274 -14.201,10.391 -19.688,10.391 -6.9318,0 -10.398,-5.6673 -10.398,-17.003 -5e-5,-2.3621 0.0962,-5.5422 0.2888,-9.5411 m 2.2624,-11.288 c -6.7393,-4.3137 -12.339,-6.4709 -16.8,-6.4709 -4.8458,0 -9.0338,2.8969 -12.564,8.6907 -3.5301,5.7622 -5.2951,12.61 -5.2951,20.546 -3e-5,6.3602 2.118,9.5403 6.3541,9.5403 4.5891,0 13.366,-9.8868 26.331,-29.661 0.16045,-0.25159 0.81828,-1.1336 1.9736,-2.6446"
           inkscape:connector-curvature="0"
           style="fill:#dddddd" />
        <path
           id="path2840"
           d="m 542.5,662.87 c 0.44924,1.5426 0.67386,3.1169 0.67394,4.7227 -7e-5,7.9036 -2.8241,14.784 -8.4722,20.64 -5.6482,5.8254 -12.291,8.7381 -19.929,8.7381 -5.5839,0 -10.141,-1.6375 -13.671,-4.9125 -3.498,-3.2743 -5.247,-7.4938 -5.247,-12.658 -10e-6,-3.7466 0.70603,-9.1155 2.118,-16.105 l 8.087,-40.052 c -1.5725,0.28035 -2.9524,0.42411 -4.1398,0.42411 -6.8676,0 -10.301,-3.5108 -10.301,-10.532 2.0859,1.9523 5.4234,2.9285 10.013,2.9285 4.0114,0 9.3546,-1.0078 16.03,-3.0227 l -11.36,55.921 c -0.73814,3.7789 -1.1072,7.1164 -1.1072,10.013 -3e-5,3.8731 1.0429,7.0216 3.1289,9.4462 2.0859,2.393 4.7976,3.5898 8.1352,3.5898 5.0383,0 9.3065,-2.2356 12.804,-6.7074 3.53,-4.502 5.295,-9.9335 5.2951,-16.294 -6e-5,-3.1485 -0.52954,-6.2186 -1.5885,-9.2097 -4.0436,-1.3226 -7.365,-3.0385 -9.9644,-5.1483 -2.5674,-2.1098 -3.851,-4.1879 -3.851,-6.2344 -4e-5,-1.0711 0.44925,-2.4721 1.3478,-4.2037 8.6646,0.66132 15.259,4.3453 19.784,11.052 4.1718,1.9524 8.5684,2.9285 13.19,2.9285 4.7174,0 9.515,-1.4017 14.393,-4.2037 l 2.455,3.8256 c -5.584,4.1563 -11.842,6.2344 -18.774,6.2344 -3.1771,0 -6.1937,-0.39536 -9.0498,-1.1803"
           inkscape:connector-curvature="0"
           style="fill:#dddddd" />
        <path
           id="path2842"
           d="m 660.01,657.2 c -7.7662,12.784 -15.998,22.86 -24.694,30.228 -8.6968,7.3364 -16.768,11.005 -24.213,11.005 -6.1937,0 -11.216,-2.0781 -15.067,-6.2352 -3.851,-4.1563 -5.7765,-9.5562 -5.7765,-16.2 -2e-5,-8.7539 3.3214,-16.374 9.9644,-22.86 6.6429,-6.5176 14.441,-9.7768 23.395,-9.7768 3.6263,0 6.5947,0.69008 8.9054,2.0781 2.3426,1.3543 3.514,3.086 3.514,5.1957 -6e-5,3.4633 -3.0006,6.0612 -9.0017,7.7929 0.32089,-0.7555 0.48133,-1.4794 0.48141,-2.1723 -5e-5,-5.1008 -2.7599,-7.6512 -8.2796,-7.6512 -4.7817,0 -9.1942,2.6288 -13.238,7.887 -4.0115,5.2274 -6.0172,10.958 -6.0172,17.192 -2e-5,5.0692 1.3318,9.2104 3.9954,12.421 2.6956,3.1808 6.1936,4.7709 10.494,4.7709 11.81,0 25.641,-12.012 41.494,-36.037 l 4.0435,2.3614"
           inkscape:connector-curvature="0"
           style="fill:#dddddd" />
        <path
           id="path2830"
           d="m 130.32,809.43 c -3.2695,-4.3325 -11.34,-6.1054 -10.535,-12.605 0.74468,-15.752 2.0812,-31.451 3.2304,-47.149 0.94513,-11.25 1.5836,-22.602 3.7204,-33.659 0.85007,-5.4039 7.2056,-12.012 3.9658,-16.461 -2.3644,-5.0625 -4.4249,-10.29 -7.7094,-14.666 -3.1416,-4.7114 3.345,-7.7075 6.6439,-7.2281 4.6277,0.064 9.3137,-0.76731 14.009,-0.35346 3.3639,0.80919 11.275,-1.8312 11.044,3.8479 -2.032,6.5671 -6.2669,11.946 -8.1195,18.583 -0.77684,5.9483 4.7219,9.7625 5.276,15.606 1.568,12.307 2.8332,24.716 3.8429,37.13 1.1726,7.8659 1.026,15.915 2.3251,23.723 0.54577,7.7956 1.4641,15.547 2.0206,23.343 -3.9552,4.5177 -8.4536,8.24 -12.438,12.707 -3.3017,2.5309 -6.336,9.126 -9.8468,3.517 -2.4802,-2.1057 -4.9519,-4.2248 -7.4292,-6.3349 z"
           inkscape:connector-curvature="0"
           style="fill:#dbe3e2" />
      </g>
    </g>
    <text
       xml:space="preserve"
       style="font-style:normal;font-weight:normal;font-size:10.58333302px;line-height:1.25;font-family:sans-serif;letter-spacing:0px;word-spacing:0px;fill:#000000;fill-opacity:1;stroke:none;stroke-width:0.26458332"
       x="13.091637"
       y="23.21213"
       id="text4495-6-7"
       inkscape:export-filename="C:\Users\msed\Dropbox\DTU\Phd\Courses\02460 Advanced Machine Learning\Project\Methods\02460\Martin\Figure1.png"
       inkscape:export-xdpi="138"
       inkscape:export-ydpi="138"><tspan
         sodipodi:role="line"
         id="tspan4493-4-4"
         x="13.091637"
         y="23.21213"
         style="stroke-width:0.26458332">Trusted Region</tspan></text>
    <ellipse
       id="path21"
       cx="-325.79727"
       cy="-1.3425333"
       rx="4.2809572"
       ry="3.868145"
       style="fill:#000000;fill-opacity:1;stroke:#000000;stroke-width:0.03393265;stroke-opacity:1"
       transform="scale(-1,1)"
       inkscape:export-filename="C:\Users\msed\Dropbox\DTU\Phd\Courses\02460 Advanced Machine Learning\Project\Methods\02460\Martin\Figure1.png"
       inkscape:export-xdpi="138"
       inkscape:export-ydpi="138" />
    <path
       style="fill:#000000;fill-opacity:1;stroke:#000000;stroke-width:0.03165222;stroke-opacity:1"
       d="m 323.15176,11.452108 v 4.930837 h -18.66303 v 18.703087 c 0,0.800664 0.72936,1.445265 1.63538,1.445265 h 14.43023 v 1.613161 h -28.61989 v -1.613161 h 6.49354 c 0.90602,0 1.63545,-0.644601 1.63545,-1.445265 V 16.382945 h -8.27327 v -4.930837 z"
       id="rect4520"
       inkscape:connector-curvature="0"
       inkscape:export-filename="C:\Users\msed\Dropbox\DTU\Phd\Courses\02460 Advanced Machine Learning\Project\Methods\02460\Martin\Figure1.png"
       inkscape:export-xdpi="138"
       inkscape:export-ydpi="138" />
    <path
       style="fill:#000000;fill-opacity:1;stroke:#000000;stroke-width:0.03165222;stroke-opacity:1"
       d="m 341.0067,5.7051566 c 0.90603,0 1.63545,0.644545 1.63545,1.445209 V 22.367938 c 0,0.496379 -0.28054,0.932523 -0.70951,1.192517 -0.17424,0.156101 -0.41658,0.252686 -0.68544,0.252686 h -0.2405 -0.0481 -1.57212 c 0.95279,0.391358 1.61059,1.243002 1.61059,2.235866 v 12.072029 c 0,0.05025 0,0 0,0 -0.54579,0.02822 -1.08757,0.0234 -1.63545,0.0234 V 26.797164 c 0,-1.059701 -0.96536,-1.91286 -2.16451,-1.91286 h -9.71629 c -1.19915,0 -2.16458,0.853159 -2.16458,1.91286 V 38.14444 h -1.39456 c -7e-5,-0.0078 -3.3e-4,-0.01558 -3.3e-4,-0.0234 V 26.049008 c 0,-0.992864 0.65781,-1.844508 1.6106,-2.235866 h -1.16807 c -0.53296,0 -0.96204,-0.379125 -0.96204,-0.850105 0,-0.470979 0.42908,-0.850167 0.96204,-0.850167 h 13.32383 c 0.90603,0 1.63545,-0.644608 1.63545,-1.445266 V 7.1503666 c 0,-0.800664 0.72943,-1.445209 1.63545,-1.445209 z"
       id="rect4527"
       inkscape:connector-curvature="0"
       sodipodi:nodetypes="ssscscccssccssssccsscssssssss"
       inkscape:export-filename="C:\Users\msed\Dropbox\DTU\Phd\Courses\02460 Advanced Machine Learning\Project\Methods\02460\Martin\Figure1.png"
       inkscape:export-xdpi="138"
       inkscape:export-ydpi="138" />
    <path
       style="fill:#000000;fill-opacity:1;stroke:#000000;stroke-width:0.03165222px;stroke-linecap:butt;stroke-linejoin:miter;stroke-opacity:1"
       d="M 337.43765,15.405262 331.90608,3.3332446 c 0,0 -1.10632,-1.360225 -1.97213,-1.317718 -0.86581,0.04249 -1.87592,0.212538 -3.17464,0.89265 -1.29872,0.680113 -8.51381,4.845809 -8.51381,4.845809 l -7.93661,-0.08501 -1.97212,3.0180024 9.33152,0.04249 c 0,0 2.54933,-0.04249 4.52146,-1.0626804 1.97212,-1.020166 4.81007,-2.805465 4.81007,-2.805465 l 4.66576,11.0943524 -8.94672,0.04249 c 0,0 -3.75186,-0.297554 -5.05057,3.783128 -1.29872,4.080683 -4.95437,12.837145 -4.95437,12.837145 l 4.04046,1.232702 5.33917,-13.092182 c 0,0 -0.28861,-1.062679 2.50123,-0.977665 2.78984,0.08502 11.25555,0.127522 11.25555,0.127522 0,0 4.85486,0.09655 2.93414,-3.783128 z"
       id="path4595"
       inkscape:connector-curvature="0"
       sodipodi:nodetypes="ccssccccscccscccscsc"
       inkscape:export-filename="C:\Users\msed\Dropbox\DTU\Phd\Courses\02460 Advanced Machine Learning\Project\Methods\02460\Martin\Figure1.png"
       inkscape:export-xdpi="138"
       inkscape:export-ydpi="138" />
    <path
       style="fill:#000000;fill-opacity:1;stroke:#000000;stroke-width:0.03165222px;stroke-linecap:butt;stroke-linejoin:miter;stroke-opacity:1"
       d="m 307.27855,10.686974 0.42615,0.04768 4.23962,-6.1686834 z"
       id="path4606"
       inkscape:connector-curvature="0"
       sodipodi:nodetypes="cccc"
       inkscape:export-filename="C:\Users\msed\Dropbox\DTU\Phd\Courses\02460 Advanced Machine Learning\Project\Methods\02460\Martin\Figure1.png"
       inkscape:export-xdpi="138"
       inkscape:export-ydpi="138" />
    <path
       style="fill:none;stroke:#000000;stroke-width:1;stroke-linecap:butt;stroke-linejoin:miter;stroke-miterlimit:4;stroke-dasharray:none;stroke-opacity:1;marker-end:url(#marker5158-0)"
       d="m -18.786095,113.76947 21.396533,36.8377"
       id="path5148-4"
       inkscape:connector-curvature="0"
       inkscape:export-filename="C:\Users\msed\Dropbox\DTU\Phd\Courses\02460 Advanced Machine Learning\Project\Methods\02460\Martin\Figure1.png"
       inkscape:export-xdpi="138"
       inkscape:export-ydpi="138" />
  </g>
</svg>
